<?xml version="1.0" encoding="utf-8"?>
<!-- Generator: Adobe Illustrator 24.0.0, SVG Export Plug-In . SVG Version: 6.00 Build 0)  -->
<svg version="1.1" id="Calque_1" xmlns="http://www.w3.org/2000/svg" xmlns:xlink="http://www.w3.org/1999/xlink" x="0px" y="0px"
	 viewBox="0 0 1116.91 618.34" style="enable-background:new 0 0 1116.91 618.34;" xml:space="preserve">
<style type="text/css">
	.st0{display:none;}
	.st1{fill:#00142D;}
	.st2{fill:#015FDB;}
	.st3{fill:#00AFEB;}
	.st4{fill:#E9ECFF;}
</style>
<path class="st4" d="M1051,257.8c-22.66-9.84-37.8-5.93-51.43,10.31c-0.81,0.96-1.59,1.94-2.37,2.92
	c-12.1,15.15-24.46,30.19-40.61,41.16c-47.48,32.25-98.87,54.38-156.87,58.72c-26.46,1.98-52.71,0.82-78.69-4.84
	c-15.06-3.29-29.59-8.07-42.66-16.46c-20.29-13.03-28.22-35.56-20.43-58.42c1.77-5.19,4.17-10.26,6.95-14.99
	c9.71-16.57,21.57-31.56,35.68-44.56c56.05-51.66,122.19-77.87,198.55-77.44c8.95,0.05,18.11,1.3,26.78,3.54
	c6.88,1.78,13.79,5.04,19.55,9.22c15.79,11.46,20.13,29.33,11.41,46.75c-3.78,7.55-8.69,14.77-14.2,21.18
	c-32.34,37.65-72.66,62.89-120.52,76.03c-11.44,3.14-23.14,4.72-35.02,4.46c-3.14-0.07-7.15,0.86-8.64-2.9
	c-1.46-3.71,2.01-5.87,4.2-8.15c12.95-13.42,27.47-24.98,42.48-36.01c5-3.67,9.83-7.95,13.59-12.84c5.91-7.71,5.32-17.82-0.31-24.44
	c-5.39-6.34-14.98-8.57-23.44-4.39c-5.07,2.5-9.95,6-13.91,10.04c-12.32,12.54-24.41,25.33-36.06,38.48
	c-5.46,6.16-10.08,13.15-14.38,20.2c-2.57,4.21-4.38,9.11-5.47,13.93c-3.23,14.26,3.49,27.06,17.26,31.95
	c6.27,2.23,13.19,3.27,19.88,3.58c18.23,0.86,36.06-2.03,53.47-7.44c47.57-14.77,88.59-40.06,122.46-76.69
	c10.78-11.66,20.67-24.04,26.49-39.07c10.22-26.4,4.94-49.8-14.17-70.26c-11.55-12.37-26.33-19-42.49-22.93
	c-23.49-5.72-47.28-6.23-71.14-3.45c-49.49,5.78-94.21,21.24-134.25,46.03c6.73-19.27,5.43-39.84-3.13-60.31
	c-1.46-3.49-3.32-6.8-5.56-9.84c-8.11-11.05-18.47-19.78-30.32-26.94c-18.94-11.46-39.61-18.45-60.95-23.72
	c-45.96-11.36-92.61-17.51-139.98-16.17c-38.93,1.1-77.84,3.1-116.72,5.23c-38.13,2.08-74.6,12.05-110.29,25.04
	c-11.95,4.34-23.09,10.2-31.5,20.19c-19.37,23.05-10.17,55.33,18.43,64.66c9.39,3.07,19.08,3.73,28.58,1.53
	c12.62-2.92,25.29-6.04,37.45-10.43c60.75-21.94,123.35-35.12,187.61-40.69c43.12-3.74,85.98-2.76,128.24,7.93
	c13.74,3.48,27.1,7.86,38.86,16.05c18.94,13.22,20.1,26.67,3.54,42.96c-10.98,10.81-24.19,18.33-38.14,24.6
	c-25,11.27-51.06,18.89-77.65,25.02c2.67-16.17,5.61-32.29,8.82-48.34c5.95-29.84-13.39-51.11-43.4-45.82
	c-6.09,1.08-12.19,3.51-17.59,6.57c-7.05,3.99-13.86,8.7-19.98,14.01c-2.47,2.14-4.93,4.29-7.37,6.46
	c-32.55,28.79-62.69,59.69-89.87,93.15c-18.11,22.26-34.9,45.65-50.22,70.32c-12.17,19.6-12.39,18.53-35.92,17.78
	c-41.11-1.29-169.45-28.43-169.45-28.43c-18.12-3.83-36.14-4.71-52.91,5.23c-31.39,18.62-30.94,60.24,0.97,77.8
	c5.43,2.98,11.59,5.01,17.66,6.42c15.34,3.56,30.12,0.15,44.82-4.38c14.5-4.47,28.93-10.04,43.82-12.18
	c44.53-9.54,85.32-14.38,120.82-12.56c0,0-43.44,111.59,15.36,116.84c58.63,5.24,61.3-118.99,61.3-118.99l88.25-1.23
	c8.17,0.11,9.48,1.58,10.21,9.82l22.94,158.41c1.83,10.48,5.9,20.64,9.66,30.67c3.43,9.17,9.47,16.83,17.06,23.02
	c14.08,11.46,29.91,14.77,46.83,7.61c16.62-7.02,24.85-20.45,26.12-38.23c0.7-9.76-0.48-19.31-4.45-28.31
	c-3.15-7.12-6.18-14.32-9.98-21.1c-13.36-23.84-22.74-49.09-27.32-76.05c-3.17-18.64-6.44-37.29-8.92-56.02
	c-2.56-19.35-4.65-38.75-5.39-58.16c2.31,2.3,4.58,4.65,6.79,7.05c36.47,39.51,122.81,146.14,163.12,182.36
	c12.64,11.37,26.5,21.44,40.34,31.35c9.89,7.07,21.45,9.9,33.76,9.19c14.33-0.82,25.35-8.9,30.3-22.33
	c3.95-10.72,2.6-21.15-1.6-31.43c-1.74-4.25-3.88-8.23-6.39-11.93l-69.95-59.08c16.75,2.28,34.7,3.33,54.57,3.62
	c9.92-0.94,28.68-2.48,47.39-4.53c45.66-4.99,89.02-18.11,130.24-38.18c30.28-14.74,57.69-33.62,80.52-58.68
	c7.01-7.69,13.03-15.98,15.29-26.42C1070.52,277.08,1064.43,263.64,1051,257.8z M472.37,320.79l-77.89,0.01
	c-1.96,0-2.89-2.41-1.44-3.72c24-26.4,49.63-50,77.2-70.24c1.37-1.24,3.56-0.29,3.58,1.56c-3.02,20.68-2.24,44.56,0.69,70.23
	C474.52,319.82,473.56,320.79,472.37,320.79z M641.28,242.1c-7.42,9.47-13.93,19.62-19.11,30.66c-5.5,11.71-8.47,23.72-9.04,35.5
	l-46.39-45.79C595.72,257.39,620.49,250.47,641.28,242.1z"/>
</svg>
